<?xml version="1.0" encoding="UTF-8" standalone="no"?>
<svg
   xmlns:dc="http://purl.org/dc/elements/1.1/"
   xmlns:cc="http://creativecommons.org/ns#"
   xmlns:rdf="http://www.w3.org/1999/02/22-rdf-syntax-ns#"
   xmlns:svg="http://www.w3.org/2000/svg"
   xmlns="http://www.w3.org/2000/svg"
   id="svg861"
   version="1.1"
   viewBox="0 0 67.733332 67.733335"
   height="256"
   width="256">
  <defs
     id="defs855" />
  <metadata
     id="metadata858">
    <rdf:RDF>
      <cc:Work
         rdf:about="">
        <dc:format>image/svg+xml</dc:format>
        <dc:type
           rdf:resource="http://purl.org/dc/dcmitype/StillImage" />
        <dc:title></dc:title>
      </cc:Work>
    </rdf:RDF>
  </metadata>
  <g
     transform="translate(0,-229.26665)"
     id="layer1">
    <circle
       r="31.110319"
       cy="263.13333"
       cx="33.866665"
       id="path1406"
       style="fill:#ffffff;fill-opacity:1;stroke:#ff0000;stroke-width:5.29166651;stroke-miterlimit:4;stroke-dasharray:none;stroke-opacity:1" />
    <g
       transform="matrix(1.4221617,0,0,1.4221617,1.6362265,-147.07046)"
       id="text1412"
       style="font-style:normal;font-weight:normal;font-size:1.41111112px;line-height:1.25;font-family:sans-serif;letter-spacing:0px;word-spacing:0px;fill:#000000;fill-opacity:1;stroke:none;stroke-width:0.26458332"
       aria-label="&lt;a&gt;">
      <path
         id="path1414"
         style="font-style:normal;font-variant:normal;font-weight:800;font-stretch:normal;font-size:25.39999962px;font-family:'Input Mono';-inkscape-font-specification:'Input Mono, Ultra-Bold';font-variant-ligatures:normal;font-variant-caps:normal;font-variant-numeric:normal;font-feature-settings:normal;text-align:start;writing-mode:lr-tb;text-anchor:start;fill:#0000ff;fill-opacity:1;stroke-width:0.26458332"
         d="M 12.493975,296.40317 0.48670249,290.63044 v -4.61818 L 12.493975,280.23953 v 3.57909 l -9.3749089,4.50273 9.3749089,4.50273 z" />
      <path
         id="path1416"
         style="font-style:normal;font-variant:normal;font-weight:800;font-stretch:normal;font-size:25.39999962px;font-family:'Input Mono';-inkscape-font-specification:'Input Mono, Ultra-Bold';font-variant-ligatures:normal;font-variant-caps:normal;font-variant-numeric:normal;font-feature-settings:normal;text-align:start;writing-mode:lr-tb;text-anchor:start;fill:#0000ff;fill-opacity:1;stroke-width:0.26458332"
         d="m 21.115903,293.86317 q 0.715818,0 1.385455,-0.18473 0.669636,-0.18473 1.316181,-0.48491 v -2.26291 H 21.04663 q -0.715818,0 -1.062182,0.32328 -0.323272,0.30018 -0.323272,1.2469 0,0.66964 0.346363,1.016 0.346364,0.34637 1.108364,0.34637 z m -1.223818,2.77091 q -2.008909,0 -3.209637,-1.08528 -1.177636,-1.08527 -1.177636,-2.95563 0,-1.96273 1.385455,-2.95564 1.385454,-1.016 3.81,-1.016 h 3.117272 v -1.57018 q 0,-0.96982 -0.508,-1.29309 -0.508,-0.34636 -1.500909,-0.34636 -1.039091,0 -1.547091,0.41563 -0.484909,0.39255 -0.692727,1.47782 l -3.717636,-0.57727 q 0.508,-2.47073 1.847272,-3.44055 1.362364,-0.96982 4.271819,-0.96982 3.163454,0 4.687454,1.17764 1.547091,1.15455 1.547091,3.53291 v 4.98764 q 0,0.90054 0.531091,1.10836 0.554182,0.18473 1.547091,0.0693 v 3.09418 q -1.939637,0.46182 -3.117273,-0.0231 -1.177636,-0.48491 -1.639454,-1.93963 h -0.692728 q -0.738909,0.92363 -2.055091,1.61636 -1.29309,0.69273 -2.886363,0.69273 z" />
      <path
         id="path1418"
         style="font-style:normal;font-variant:normal;font-weight:800;font-stretch:normal;font-size:25.39999962px;font-family:'Input Mono';-inkscape-font-specification:'Input Mono, Ultra-Bold';font-variant-ligatures:normal;font-variant-caps:normal;font-variant-numeric:normal;font-feature-settings:normal;text-align:start;writing-mode:lr-tb;text-anchor:start;fill:#0000ff;fill-opacity:1;stroke-width:0.26458332"
         d="m 32.832013,296.40317 v -3.34818 l 9.836727,-4.73364 -9.836727,-4.73364 v -3.34818 l 12.007272,5.77273 v 4.61818 z" />
    </g>
    <path
       id="path1421"
       d="m 54.701837,242.29815 -41.67034,41.67033"
       style="fill:none;stroke:#ff0000;stroke-width:5.29166667;stroke-linecap:butt;stroke-linejoin:miter;stroke-miterlimit:4;stroke-dasharray:none;stroke-opacity:1" />
  </g>
</svg>
