<?xml version="1.0" standalone="no"?>
<!DOCTYPE svg PUBLIC "-//W3C//DTD SVG 20010904//EN"
 "http://www.w3.org/TR/2001/REC-SVG-20010904/DTD/svg10.dtd">
<svg version="1.0" xmlns="http://www.w3.org/2000/svg"
 width="260.000000pt" height="260.000000pt" viewBox="0 0 260.000000 260.000000"
 preserveAspectRatio="xMidYMid meet">
<metadata>
Created by potrace 1.11, written by Peter Selinger 2001-2013
</metadata>
<g transform="translate(0.000000,260.000000) scale(0.100000,-0.100000)"
fill="#000000" stroke="none">
<path d="M1227 2594 c-1 -1 -35 -4 -75 -8 -41 -3 -77 -8 -82 -11 -4 -3 -25 -7
-46 -10 -106 -16 -299 -95 -416 -171 -510 -329 -726 -943 -532 -1514 145 -425
500 -743 944 -844 126 -29 299 -39 415 -24 116 15 133 19 216 42 380 105 703
395 850 761 102 255 118 499 54 809 -19 95 -110 296 -178 396 -245 360 -626
565 -1070 574 -43 1 -79 1 -80 0z"/>
</g>
</svg>
